HIERARCHY
ROOT Pelvis
{
	OFFSET 0.000000 0.000000 0.000000
	CHANNELS 6 Xposition Yposition Zposition Xrotation Yrotation Zrotation
	JOINT LeftUpLeg_virtual
	{
		OFFSET 0.000000 0.000000 0.000000
		CHANNELS 3 Xrotation Yrotation Zrotation
		JOINT LeftUpLeg
		{
			OFFSET 18.735201 -5.666702 -4.541200
			CHANNELS 3 Xrotation Yrotation Zrotation
			JOINT LeftLeg
			{
				OFFSET -0.021200 -31.938179 0.493100
				CHANNELS 3 Xrotation Yrotation Zrotation
				JOINT LeftFoot
				{
					OFFSET 0.021200 -31.938179 -4.336299
					CHANNELS 3 Xrotation Yrotation Zrotation
					JOINT LeftToeBase
					{
						OFFSET 0.943001 -26.722000 15.023500
						CHANNELS 3 Xrotation Yrotation Zrotation
						End Site
						{
							OFFSET 0 0 0
						}
					}
				}
			}
		}
	}
	JOINT RightUpLeg_virtual
	{
		OFFSET 0.000000 0.000000 0.000000
		CHANNELS 3 Xrotation Yrotation Zrotation
		JOINT RightUpLeg
		{
			OFFSET -18.735201 -5.666702 -4.541200
			CHANNELS 3 Xrotation Yrotation Zrotation
			JOINT RightLeg
			{
				OFFSET 0.018946 -31.938133 0.493100
				CHANNELS 3 Xrotation Yrotation Zrotation
				JOINT RightFoot
				{
					OFFSET -0.018946 -31.938126 -4.336299
					CHANNELS 3 Xrotation Yrotation Zrotation
					JOINT RightToeBase
					{
						OFFSET -0.943001 -26.722004 15.023500
						CHANNELS 3 Xrotation Yrotation Zrotation
						End Site
						{
							OFFSET 0 0 0
						}
					}
				}
			}
		}
	}
	JOINT Hips_virtual
	{
		OFFSET 0.000000 0.000000 0.000000
		CHANNELS 3 Xrotation Yrotation Zrotation
		JOINT Hips
		{
			OFFSET -0.000000 -0.000000 -0.000000
			CHANNELS 3 Xrotation Yrotation Zrotation
			JOINT Spine
			{
				OFFSET 0.000000 10.199997 -0.299500
				CHANNELS 3 Xrotation Yrotation Zrotation
				JOINT Spine1
				{
					OFFSET 0.000000 11.900002 -1.516600
					CHANNELS 3 Xrotation Yrotation Zrotation
					JOINT Spine2
					{
						OFFSET 0.000000 13.600006 -2.842500
						CHANNELS 3 Xrotation Yrotation Zrotation
						JOINT Neck_virtual
						{
							OFFSET 0.000000 0.000000 0.000000
							CHANNELS 3 Xrotation Yrotation Zrotation
							JOINT Neck
							{
								OFFSET 0.000000 9.624100 -2.890100
								CHANNELS 3 Xrotation Yrotation Zrotation
								JOINT Head
								{
									OFFSET 0.000000 14.068802 -1.351900
									CHANNELS 3 Xrotation Yrotation Zrotation
									End Site
									{
										OFFSET 0 0 0
									}
								}
							}
						}
						JOINT LeftShoulder_virtual
						{
							OFFSET 0.000000 0.000000 0.000000
							CHANNELS 3 Xrotation Yrotation Zrotation
							JOINT LeftShoulder
							{
								OFFSET 15.263000 10.923401 -0.547700
								CHANNELS 3 Xrotation Yrotation Zrotation
								JOINT LeftArm
								{
									OFFSET 25.438599 -2.830597 -13.032500
									CHANNELS 3 Xrotation Yrotation Zrotation
									JOINT LeftForeArm
									{
										OFFSET 29.960503 0.000000 0.000000
										CHANNELS 3 Xrotation Yrotation Zrotation
										JOINT LeftHand
										{
											OFFSET 27.849251 0.000000 0.000000
											CHANNELS 3 Xrotation Yrotation Zrotation
											End Site
											{
												OFFSET 0 0 0
											}
										}
									}
								}
							}
						}
						JOINT RightShoulder_virtual
						{
							OFFSET 0.000000 0.000000 0.000000
							CHANNELS 3 Xrotation Yrotation Zrotation
							JOINT RightShoulder
							{
								OFFSET -15.263000 10.923401 -0.547700
								CHANNELS 3 Xrotation Yrotation Zrotation
								JOINT RightArm
								{
									OFFSET -25.438599 -2.830597 -13.032500
									CHANNELS 3 Xrotation Yrotation Zrotation
									JOINT RightForeArm
									{
										OFFSET -29.960503 0.000000 0.000000
										CHANNELS 3 Xrotation Yrotation Zrotation
										JOINT RightHand
										{
											OFFSET -27.849251 0.000000 0.000000
											CHANNELS 3 Xrotation Yrotation Zrotation
											End Site
											{
												OFFSET 0 0 0
											}
										}
									}
								}
							}
						}
					}
				}
			}
		}
	}
}
MOTION
Frames: 7
Frame Time: 0.03333333
7.544717 38.871098 407.842041 0.000000 0.000000 0.000000 74.615077 -32.700152 137.415934 -66.532292 -14.432905 17.292277 11.974561 6.990912 -7.999765 23.719242 3.578526 11.953097 0.000000 0.000000 0.000000 72.608135 -36.799615 137.860333 -75.957830 15.859750 -27.323950 88.618289 3.753595 31.393325 60.250342 31.217270 24.381124 0.000000 0.000000 0.000000 75.979079 -34.364557 143.701579 -1.032450 -0.408983 0.085580 22.700301 -10.319198 -4.183307 8.683004 -15.225977 -1.297687 0.000000 0.000000 0.000000 8.317476 -16.051815 -1.998423 2.676861 0.407573 -0.458221 0.000000 0.000000 0.000000 12.258588 -14.649895 0.254392 -1.266974 9.328483 -18.664851 -6.525522 15.150975 -64.064517 15.165895 -47.203673 13.621334 0.000000 0.000000 0.000000 4.085003 -16.355487 -2.129068 9.080217 45.965828 -11.994749 -63.667561 -67.262023 -11.773335 32.896780 50.612211 -70.302994 0.000000 0.000000 0.000000 
7.746349 39.502174 422.861084 0.000000 0.000000 0.000000 74.925256 -32.680133 131.405231 -74.605890 -9.874343 17.860557 16.108590 7.280734 -9.546121 24.146431 8.430339 13.800279 0.000000 0.000000 0.000000 73.131717 -35.378744 131.598839 -74.800243 17.081060 -33.798450 89.570404 2.157917 32.284788 66.060094 32.974306 22.232242 0.000000 0.000000 0.000000 76.734115 -33.201222 137.904156 -1.016267 -0.404083 0.123947 21.870578 -10.125824 -2.889921 8.652064 -13.394234 -1.366699 0.000000 0.000000 0.000000 7.754374 -14.327563 -2.063794 1.117881 0.588344 -1.043870 0.000000 0.000000 0.000000 12.256003 -13.033270 0.258383 -1.382466 10.550380 -19.558600 -0.123867 22.836893 -68.475071 17.894266 -48.294847 15.263226 0.000000 0.000000 0.000000 4.205485 -14.719380 -2.280016 8.490611 43.759011 -10.356829 -64.664392 -65.609431 -4.723308 25.548681 48.228874 -62.436351 0.000000 0.000000 0.000000 
7.822559 39.963135 435.964600 0.000000 0.000000 0.000000 72.897195 -33.953758 122.269498 -84.312770 -7.434678 17.924397 22.542793 6.749770 -11.371034 26.661896 13.027901 14.730280 0.000000 0.000000 0.000000 72.043326 -34.705834 122.951642 -69.322138 16.376615 -39.760843 88.369910 -0.949086 33.190843 66.325016 33.430716 21.366802 0.000000 0.000000 0.000000 75.764126 -33.662987 129.385599 -1.028455 -0.390505 0.137773 20.529453 -9.406724 -1.094138 8.381778 -10.992173 -1.811661 0.000000 0.000000 0.000000 6.837535 -11.880014 -2.616136 -0.657376 0.476431 -1.445153 0.000000 0.000000 0.000000 12.210726 -10.816504 -0.285621 -1.609182 10.288544 -20.585094 7.359197 29.558631 -71.285380 21.065941 -51.852710 17.899921 0.000000 0.000000 0.000000 4.230512 -12.318928 -2.730709 7.570705 40.119346 -8.064217 -57.571419 -66.850661 10.132265 22.753034 50.096637 -57.928009 0.000000 0.000000 0.000000 
7.719761 40.086346 447.109009 0.000000 0.000000 0.000000 69.102602 -35.375322 110.781420 -94.603058 -6.515462 17.311454 30.984368 4.730316 -13.358014 30.316751 15.751721 13.044090 0.000000 0.000000 0.000000 69.522166 -34.879013 111.878171 -61.087614 13.325008 -44.246239 87.252777 -3.358446 33.391856 61.870797 34.905692 22.391033 0.000000 0.000000 0.000000 72.709133 -35.326722 117.864832 -1.069782 -0.304510 0.077509 18.419504 -8.327195 0.802149 8.022175 -8.271156 -2.657318 0.000000 0.000000 0.000000 5.721460 -9.062895 -3.621353 -2.487568 0.088534 -1.614964 0.000000 0.000000 0.000000 12.182202 -8.344211 -1.280417 -1.904595 8.861445 -20.866677 13.311342 34.476111 -70.965843 24.335322 -56.616258 21.273393 0.000000 0.000000 0.000000 4.484741 -9.543663 -3.431469 6.793068 35.239562 -5.620358 -34.763870 -68.727836 38.345689 25.539075 57.911979 -57.725200 0.000000 0.000000 0.000000 
7.639078 40.092892 456.532471 0.000000 0.000000 0.000000 64.566113 -36.478606 98.009315 -104.645765 -6.025779 16.823261 41.514146 0.648327 -15.350393 33.625318 14.916616 8.031670 0.000000 0.000000 0.000000 65.767482 -36.140686 99.055549 -53.173576 9.697138 -46.548501 87.721506 -2.685781 32.146914 58.259048 38.463165 23.654198 0.000000 0.000000 0.000000 67.431712 -37.138477 103.462319 -1.114896 -0.132364 -0.002700 15.857756 -7.185567 2.028882 7.680292 -5.452036 -3.838358 0.000000 0.000000 0.000000 4.604305 -6.392440 -4.865899 -4.112272 -0.464281 -1.535131 0.000000 0.000000 0.000000 12.100475 -5.954900 -2.551839 -2.321444 6.811721 -19.649112 14.909521 38.267286 -66.512778 25.785936 -60.483074 23.627381 0.000000 0.000000 0.000000 4.834506 -6.842354 -4.256979 6.233911 29.609898 -3.152984 -1.967780 -64.627919 73.009285 40.653470 70.664843 -68.690543 0.000000 0.000000 0.000000 
7.210590 40.391830 464.469666 0.000000 0.000000 0.000000 60.935526 -37.050033 85.673139 -113.737376 -5.837878 16.540357 53.693360 -5.050601 -16.586809 34.055907 10.605034 0.859619 0.000000 0.000000 0.000000 61.402697 -37.339807 85.765729 -46.443743 5.639963 -46.050245 87.050078 -0.002341 30.146068 58.494655 43.419864 23.550351 0.000000 0.000000 0.000000 61.949481 -38.054966 88.362526 -1.122446 0.028135 0.014861 13.108718 -6.316879 2.166319 7.414161 -2.894849 -5.116475 0.000000 0.000000 0.000000 3.723982 -4.175004 -6.033538 -5.326570 -1.133078 -1.222721 0.000000 0.000000 0.000000 11.992488 -3.847872 -3.810608 -2.809253 4.717292 -16.581205 10.269988 41.464531 -57.616423 22.941962 -61.779512 22.590986 0.000000 0.000000 0.000000 5.269581 -4.504158 -5.018223 5.935824 23.814681 -1.037955 18.083327 -54.313927 91.708547 106.593305 78.980647 -129.674570 0.000000 0.000000 0.000000 
6.312860 41.795082 471.422241 0.000000 0.000000 0.000000 58.468817 -37.150727 74.291571 -120.744999 -5.632317 15.583258 66.498592 -10.800615 -16.092998 29.394433 5.278493 -6.178657 0.000000 0.000000 0.000000 57.666741 -37.793011 73.269236 -39.422609 0.830180 -41.764834 82.915560 1.755412 29.087262 57.941287 47.234440 23.912270 0.000000 0.000000 0.000000 57.770901 -37.839132 74.617631 -1.059999 0.124283 0.130150 10.473457 -5.982033 1.158161 7.327430 -0.980916 -6.101725 0.000000 0.000000 0.000000 3.141332 -2.596909 -6.893593 -6.081764 -1.843930 -0.719555 0.000000 0.000000 0.000000 11.641943 -2.311945 -4.878110 -3.440527 2.745815 -11.727277 -0.041452 42.640594 -45.800756 15.920076 -59.888649 18.186284 0.000000 0.000000 0.000000 5.456330 -2.754626 -5.482892 5.842097 18.475544 0.648635 25.782251 -43.749274 96.060245 160.239858 68.861359 -178.152152 0.000000 0.000000 0.000000 
